PathFileType	4	(X/Y/Z)	c:/Users/goper/Files/vsCode/490R/osim_files/C07/C07_Fast_03.trc
DataRate	CameraRate	NumFrames	NumMarkers	Units                	OrigDataRate	OrigDataStartFrame	OrigNumFrames
250.00	250.00	5	36	mm	250.0	2056	3288
                Frame#	Time	LPSIS			LASIS			LTH1			LTH2			LTH3			LTH4			LLFE			LMFE			LSH1			LSH2			LSH3			LSH4			LLMAL			LMMAL			LCAL			LMTP5			LTOE			LMTP1			RPSIS			RASIS			RTH1			RTH2			RTH3			RTH4			RLFE			RMFE			RSH1			RSH2			RSH3			RSH4			RLMAL			RMMAL			RCAL			RMTP1			RTOE			RMTP5		
		X1	Y1	Z1	X2	Y2	Z2	X3	Y3	Z3	X4	Y4	Z4	X5	Y5	Z5	X6	Y6	Z6	X7	Y7	Z7	X8	Y8	Z8	X9	Y9	Z9	X10	Y10	Z10	X11	Y11	Z11	X12	Y12	Z12	X13	Y13	Z13	X14	Y14	Z14	X15	Y15	Z15	X16	Y16	Z16	X17	Y17	Z17	X18	Y18	Z18	X19	Y19	Z19	X20	Y20	Z20	X21	Y21	Z21	X22	Y22	Z22	X23	Y23	Z23	X24	Y24	Z24	X25	Y25	Z25	X26	Y26	Z26	X27	Y27	Z27	X28	Y28	Z28	X29	Y29	Z29	X30	Y30	Z30	X31	Y31	Z31	X32	Y32	Z32	X33	Y33	Z33	X34	Y34	Z34	X35	Y35	Z35	X36	Y36	Z36

2056	8.22000	-1961.30530	957.70355	251.41441	-2129.37524	936.59937	326.69714	-2076.29883	733.15277	368.60196	-2093.93628	655.37775	368.92752	-2109.11646	582.30609	357.10779	-2169.25391	675.36658	344.50687	-2095.18433	463.39160	333.04477	-2100.49976	452.15668	212.96291	-1949.80042	368.20850	344.34634	0.00000	0.00000	0.00000	-1978.40601	338.57660	330.83249	-1939.81958	314.97711	321.85339	-1762.59204	256.83496	285.99289	-1794.66919	240.49458	215.85725	-1699.59167	297.34515	236.25027	-1714.58313	113.97919	304.13025	-1740.85144	62.69509	249.10008	-1724.02368	91.47708	198.80183	-1961.47949	976.14825	152.91895	-2124.25293	964.92261	74.00388	-2126.87476	813.30719	9.28709	-2156.52515	740.62488	13.25540	-2184.39844	663.31592	21.59350	-2222.16992	766.47882	50.02351	-2236.33594	497.08081	55.53693	-2222.03516	504.76254	167.78358	-2177.09985	315.24323	38.75761	-2210.42090	265.02777	41.57027	-2240.97681	316.19589	48.08332	-2237.69971	272.97354	49.36116	-2178.74365	96.34595	81.68755	-2205.17090	103.15476	161.64099	-2125.34033	47.06284	129.48785	-2337.00977	40.57186	150.18190	-2361.03735	54.28487	99.58893	-2310.15601	40.94014	42.48948
2057	8.22400	-1965.82385	958.27850	250.97951	-2133.76343	937.22839	326.49658	-2082.91992	733.49969	367.25546	-2101.58936	655.80872	368.11670	-2117.53394	583.12329	356.42618	-2176.88306	676.90112	344.40094	-2107.47949	465.14368	333.44214	-2110.67480	453.29800	212.58069	-1961.34741	368.94730	344.33203	0.00000	0.00000	0.00000	-1989.88867	339.30789	330.76547	-1951.18152	315.72723	321.72604	-1773.61255	258.81470	285.49411	-1805.56897	241.87422	215.88258	-1711.15588	300.26395	235.52515	-1723.64612	117.31399	304.80511	-1749.36206	65.24967	250.24706	-1732.70496	93.75817	199.73151	-1966.17334	976.87756	152.64771	-2129.21094	965.65741	73.76607	-2131.24219	813.93488	9.01318	-2160.42285	741.04620	12.89816	-2187.84009	663.50562	21.22326	-2226.19727	766.52185	49.71746	-2238.67798	496.83698	55.14728	-2225.05005	504.87833	167.55544	-2178.52441	315.31937	38.69010	-2211.17041	265.11633	41.20993	-2242.20435	316.09473	47.68348	-2238.34253	272.88336	48.91698	-2178.75464	96.39443	81.72084	-2205.18921	103.17772	161.64252	-2125.32153	47.12293	129.51254	-2336.94995	40.56601	150.14825	-2361.03931	54.27801	99.54698	-2310.14526	40.94684	42.43149
2058	8.22800	-1970.38965	958.75262	250.63336	-2138.04614	937.99310	326.28610	-2089.69189	733.96210	366.35648	-2108.95215	656.40680	367.17468	-2125.87793	583.95648	355.80551	-2184.40894	678.42517	344.26935	-2116.24072	465.52182	332.13211	-2121.21777	454.46945	212.34877	-1972.86194	369.66638	344.41147	0.00000	0.00000	0.00000	-2001.30420	340.06683	330.52725	-1962.58813	316.63394	321.60736	-1783.87036	261.35773	285.56195	-1815.13147	244.73172	215.26790	-1722.11792	302.69388	234.82922	-1733.47974	120.45971	305.51364	-1758.96301	67.89575	251.54201	-1742.46265	95.89923	200.55814	-1970.76770	977.68665	152.22157	-2134.03906	966.43811	73.66573	-2135.45459	814.52698	8.73572	-2164.29370	741.49078	12.59422	-2191.10596	663.71082	20.95693	-2230.14990	766.62524	49.39393	-2240.94971	496.64532	54.84290	-2228.04175	504.89874	167.30882	-2179.93018	315.37399	38.65173	-2211.88501	265.13049	41.09014	-2243.14185	315.89023	47.37463	-2239.10571	272.72168	48.59113	-2178.73633	96.43761	81.76759	-2205.16650	103.12938	161.63641	-2125.27588	47.12838	129.48053	-2336.84570	40.47082	150.09686	-2361.01367	54.22114	99.50370	-2310.05103	40.89740	42.33909
2059	8.23200	-1974.59485	959.12683	250.19104	-2142.43799	938.72186	326.08401	-2096.66699	734.54083	366.10165	-2116.48071	657.41498	366.49240	-2134.16016	584.86670	355.07257	-2191.83447	680.05402	344.20386	-2126.54663	466.85440	331.64340	-2131.61328	455.67795	211.98491	-1984.24390	370.44708	344.43146	0.00000	0.00000	0.00000	-2012.56238	341.06586	330.17764	-1973.82642	317.35156	321.11154	-1794.53918	263.43146	285.18890	-1825.74316	246.70549	215.22612	-1732.40552	304.79346	234.07465	-1743.97815	123.17619	306.41162	-1769.72620	70.30248	252.85408	-1753.16943	97.81847	201.61743	-1975.56592	978.46130	151.97893	-2138.83032	967.13483	73.51335	-2139.68506	815.10992	8.50550	-2168.00562	741.87268	12.32494	-2194.54858	664.03204	20.66946	-2233.98267	766.61981	49.14596	-2241.70264	496.32202	54.40805	-2230.87354	504.89240	167.08643	-2181.31909	315.40823	38.64088	-2212.47729	265.10028	40.93330	-2244.30103	315.81467	47.05917	-2239.92871	272.57278	48.29858	-2178.77563	96.50299	81.81113	-2205.23511	103.07760	161.67809	-2125.36377	47.07182	129.53140	-2336.86108	40.46682	150.11293	-2361.02222	54.14450	99.47903	-2310.07666	40.86797	42.25886
2060	8.23600	-1979.54199	960.05475	249.96353	-2146.79297	939.58038	325.94922	-2103.73218	735.22125	366.30972	-2123.90747	658.42621	365.96698	-2142.45288	585.96198	354.51288	-2199.29272	681.76343	344.14093	-2136.78418	468.28152	331.13858	-2142.00220	456.98096	211.59311	-1995.35400	371.41595	344.41287	0.00000	0.00000	0.00000	-2023.63721	342.20386	329.86954	-1985.09778	318.37979	320.78760	-1804.86267	265.82794	285.17285	-1836.34253	248.81610	215.19220	-1742.46948	306.50705	233.40753	-1755.39136	125.68894	307.25159	-1781.22913	72.40488	254.15074	-1764.60925	99.42440	202.63837	-1980.37683	979.20691	151.63959	-2143.61328	967.92633	73.29971	-2144.03442	815.80054	8.24982	-2171.81665	742.25787	12.06053	0.00000	0.00000	0.00000	-2237.81958	766.63831	49.03532	-2245.11206	496.19275	54.26438	-2233.24854	504.83295	166.90784	-2182.69165	315.42334	38.65593	-2213.15674	265.08005	40.76396	-2245.19971	315.50906	46.83530	-2240.54980	272.41818	48.02436	-2178.77881	96.52815	81.85996	-2205.29541	103.04510	161.72279	-2125.41602	47.04969	129.51498	-2336.82739	40.41130	150.10117	-2361.02808	54.08227	99.44402	-2310.00586	40.83032	42.18557
